<mxfile host="Electron" agent="Mozilla/5.0 (Windows NT 10.0; Win64; x64) AppleWebKit/537.36 (KHTML, like Gecko) draw.io/26.2.2 Chrome/134.0.6998.178 Electron/35.1.2 Safari/537.36" version="26.2.2">
  <diagram name="Page-1" id="VHbYTp0NC6XkVOALSvYX">
    <mxGraphModel dx="787" dy="1211" grid="1" gridSize="10" guides="1" tooltips="1" connect="1" arrows="1" fold="1" page="1" pageScale="1" pageWidth="850" pageHeight="1100" math="0" shadow="0">
      <root>
        <mxCell id="0" />
        <mxCell id="1" parent="0" />
        <mxCell id="Wu4sPdIvapGxWzZ9fyhN-1" value="Diagnostic" style="ellipse;whiteSpace=wrap;html=1;fillColor=#f8cecc;strokeColor=#b85450;fontSize=16;" vertex="1" parent="1">
          <mxGeometry x="151" y="330" width="120" height="80" as="geometry" />
        </mxCell>
        <mxCell id="Wu4sPdIvapGxWzZ9fyhN-2" value="Safe" style="ellipse;whiteSpace=wrap;html=1;fillColor=#fff2cc;strokeColor=#d6b656;fontSize=16;" vertex="1" parent="1">
          <mxGeometry x="380" y="330" width="120" height="80" as="geometry" />
        </mxCell>
        <mxCell id="Wu4sPdIvapGxWzZ9fyhN-3" value="Science" style="ellipse;whiteSpace=wrap;html=1;fillColor=#d5e8d4;strokeColor=#82b366;fontSize=16;" vertex="1" parent="1">
          <mxGeometry x="610" y="330" width="120" height="80" as="geometry" />
        </mxCell>
        <mxCell id="Wu4sPdIvapGxWzZ9fyhN-4" value="Ground Command" style="endArrow=classic;html=1;rounded=0;exitX=1;exitY=0;exitDx=0;exitDy=0;entryX=0;entryY=0;entryDx=0;entryDy=0;" edge="1" parent="1" source="Wu4sPdIvapGxWzZ9fyhN-1" target="Wu4sPdIvapGxWzZ9fyhN-2">
          <mxGeometry width="50" height="50" relative="1" as="geometry">
            <mxPoint x="380" y="640" as="sourcePoint" />
            <mxPoint x="430" y="590" as="targetPoint" />
          </mxGeometry>
        </mxCell>
        <mxCell id="Wu4sPdIvapGxWzZ9fyhN-5" value="Ground Command" style="endArrow=classic;html=1;rounded=0;exitX=1;exitY=0;exitDx=0;exitDy=0;entryX=0;entryY=0;entryDx=0;entryDy=0;" edge="1" parent="1" source="Wu4sPdIvapGxWzZ9fyhN-2" target="Wu4sPdIvapGxWzZ9fyhN-3">
          <mxGeometry width="50" height="50" relative="1" as="geometry">
            <mxPoint x="302" y="352" as="sourcePoint" />
            <mxPoint x="408" y="352" as="targetPoint" />
          </mxGeometry>
        </mxCell>
        <mxCell id="Wu4sPdIvapGxWzZ9fyhN-6" value="&lt;div&gt;Fault&amp;nbsp;&lt;/div&gt;" style="endArrow=classic;html=1;rounded=0;exitX=0;exitY=1;exitDx=0;exitDy=0;entryX=1;entryY=1;entryDx=0;entryDy=0;fillColor=#f8cecc;strokeColor=#b85450;" edge="1" parent="1" source="Wu4sPdIvapGxWzZ9fyhN-3" target="Wu4sPdIvapGxWzZ9fyhN-2">
          <mxGeometry width="50" height="50" relative="1" as="geometry">
            <mxPoint x="492" y="352" as="sourcePoint" />
            <mxPoint x="598" y="352" as="targetPoint" />
          </mxGeometry>
        </mxCell>
        <mxCell id="Wu4sPdIvapGxWzZ9fyhN-7" value="Ground Command" style="endArrow=classic;html=1;rounded=0;exitX=0;exitY=1;exitDx=0;exitDy=0;entryX=1;entryY=1;entryDx=0;entryDy=0;" edge="1" parent="1" source="Wu4sPdIvapGxWzZ9fyhN-2" target="Wu4sPdIvapGxWzZ9fyhN-1">
          <mxGeometry width="50" height="50" relative="1" as="geometry">
            <mxPoint x="416" y="460" as="sourcePoint" />
            <mxPoint x="310" y="460" as="targetPoint" />
          </mxGeometry>
        </mxCell>
        <mxCell id="Wu4sPdIvapGxWzZ9fyhN-8" value="Ground Command" style="curved=1;endArrow=classic;html=1;rounded=0;exitX=0.5;exitY=1;exitDx=0;exitDy=0;entryX=0.5;entryY=1;entryDx=0;entryDy=0;" edge="1" parent="1" source="Wu4sPdIvapGxWzZ9fyhN-3" target="Wu4sPdIvapGxWzZ9fyhN-1">
          <mxGeometry width="50" height="50" relative="1" as="geometry">
            <mxPoint x="380" y="640" as="sourcePoint" />
            <mxPoint x="430" y="590" as="targetPoint" />
            <Array as="points">
              <mxPoint x="440" y="440" />
            </Array>
          </mxGeometry>
        </mxCell>
        <mxCell id="Wu4sPdIvapGxWzZ9fyhN-10" value="Ground Command" style="endArrow=classic;html=1;rounded=0;exitX=0;exitY=0.5;exitDx=0;exitDy=0;entryX=1;entryY=0.5;entryDx=0;entryDy=0;" edge="1" parent="1" source="Wu4sPdIvapGxWzZ9fyhN-3" target="Wu4sPdIvapGxWzZ9fyhN-2">
          <mxGeometry width="50" height="50" relative="1" as="geometry">
            <mxPoint x="492" y="352" as="sourcePoint" />
            <mxPoint x="628" y="352" as="targetPoint" />
          </mxGeometry>
        </mxCell>
      </root>
    </mxGraphModel>
  </diagram>
</mxfile>
